HIERARCHY
ROOT Hip
{
    OFFSET 0.0 0.0 0.0
    CHANNELS 6 Xposition Yposition Zposition Zrotation Xrotation Yrotation
    JOINT RightHip
    {
        OFFSET -10.39119815826416 0.0 0.0
        CHANNELS 3 Zrotation Xrotation Yrotation
        JOINT RightKnee
        {
            OFFSET 0.0 0.0 -37.54956817626953
            CHANNELS 3 Zrotation Xrotation Yrotation
            JOINT RightAnkle
            {
                OFFSET 0.0 0.0 -35.158958435058594
                CHANNELS 3 Zrotation Xrotation Yrotation
                End Site
                {
                    OFFSET 0.0 -14.06358528137207 0.0
                }
            }
        }
    }
    JOINT LeftHip
    {
        OFFSET 10.39119815826416 0.0 0.0
        CHANNELS 3 Zrotation Xrotation Yrotation
        JOINT LeftKnee
        {
            OFFSET 0.0 0.0 -37.54956817626953
            CHANNELS 3 Zrotation Xrotation Yrotation
            JOINT LeftAnkle
            {
                OFFSET 0.0 0.0 -35.158958435058594
                CHANNELS 3 Zrotation Xrotation Yrotation
                End Site
                {
                    OFFSET 0.0 -14.06358528137207 0.0
                }
            }
        }
    }
    JOINT Spine
    {
        OFFSET 0.0 0.0 22.984718322753906
        CHANNELS 3 Zrotation Xrotation Yrotation
        JOINT Thorax
        {
            OFFSET 0.0 0.0 25.187763214111328
            CHANNELS 3 Zrotation Xrotation Yrotation
            JOINT Neck
            {
                OFFSET 0.0 0.0 12.475111961364746
                CHANNELS 3 Zrotation Xrotation Yrotation
                End Site
                {
                    OFFSET 0.0 0.0 4.990045070648193
                }
            }
            JOINT LeftShoulder
            {
                OFFSET 13.25465202331543 0.0 0.0
                CHANNELS 3 Zrotation Xrotation Yrotation
                JOINT LeftElbow
                {
                    OFFSET 28.120258331298828 0.0 0.0
                    CHANNELS 3 Zrotation Xrotation Yrotation
                    JOINT LeftWrist
                    {
                        OFFSET 22.806026458740234 0.0 0.0
                        CHANNELS 3 Zrotation Xrotation Yrotation
                        End Site
                        {
                            OFFSET 9.122410774230957 0.0 0.0
                        }
                    }
                }
            }
            JOINT RightShoulder
            {
                OFFSET -13.25465202331543 0.0 0.0
                CHANNELS 3 Zrotation Xrotation Yrotation
                JOINT RightElbow
                {
                    OFFSET -28.120258331298828 0.0 0.0
                    CHANNELS 3 Zrotation Xrotation Yrotation
                    JOINT RightWrist
                    {
                        OFFSET -22.806026458740234 0.0 0.0
                        CHANNELS 3 Zrotation Xrotation Yrotation
                        End Site
                        {
                            OFFSET -9.122410774230957 0.0 0.0
                        }
                    }
                }
            }
        }
    }
}
MOTION
Frames: 9
Frame Time: 0.03333333333333333
0.0001718445710139349 78.36443328857422 -0.000869128794874996 -91.93285906995969 -45.57544954237246 -92.67498179874401 -0.8495091311959647 -13.667313530726942 -1.635579066070629 0.6295582720147213 17.900273753042224 -3.5599962258425952 -3.180554681463516e-15 -8.827812596100317e-32 3.180554681463516e-15 -0.7267593111699179 -11.917204797171577 -9.988999441593629 -1.662602331274754 14.359882852853602 3.4522946868033464 -3.1805546814635168e-15 0.0 0.0 0.24563182188667604 4.050202028561912 -0.9697538311571084 -1.6566965571382626 3.857074242450046e-06 3.284439669214191e-06 0.28920896466636786 -9.681200900674417 -6.435034643222615 -34.42403292931677 4.8426601394503095 78.73005229509039 -26.17788937067681 -1.235342241173059e-06 -6.481951415315545e-07 6.3611093629270335e-15 1.5902773407317584e-15 1.5902773407317584e-15 12.470111497319111 7.269641989488907 -74.97910885374999 26.885727359779537 4.506101929193847e-06 -9.700215539609972e-07 8.827812596100317e-32 3.1805546814635176e-15 -3.1805546814635176e-15
0.00014865763660054654 78.3643798828125 -0.0008694243733771145 -91.98203237676968 -45.1923692971752 -92.55600194779971 -0.8533075492601165 -13.458785925807476 -1.506512920479579 0.6849931557417536 17.683921689620778 -3.5699111423359704 0.0 -6.361109362927033e-15 0.0 -0.7184704476398909 -11.554002388222298 -10.259600896642377 -1.691846943804456 14.173039389749237 3.115308197602108 6.3611093629270335e-15 0.0 0.0 0.2572915762008178 4.156461517405663 -1.2417358802430436 -1.6153494188315256 -2.4179671036371937e-07 -7.56681537590237e-07 0.43439612905730396 -8.899183058490317 -6.290743103483618 -34.53487103478477 4.924231084336269 78.63407018561277 -26.519833056613386 7.832542399094721e-08 5.9357575036087536e-08 0.0 0.0 -1.5902773407317584e-15 12.474574429974574 6.814026686727954 -74.23353117660203 27.374540021107695 -2.4242966204071914e-06 1.514756338175069e-06 0.0 0.0 -3.1805546814635164e-15
0.00011958209506701678 78.36430358886719 -0.0008451341418549418 -92.0595949138481 -45.019407254449916 -92.64032027667942 -0.8565315138237123 -13.470245516572202 -0.9771192249541474 0.8545815292201976 17.633040063382307 -4.144262082692265 4.4139062980501586e-32 -1.590277340731758e-15 3.180554681463516e-15 -0.7089397000917994 -11.37727450628207 -10.291249966706319 -1.7075605346339287 14.250204958324169 3.019950894944329 3.180554681463516e-15 -1.590277340731758e-15 3.180554681463516e-15 0.27528197008301863 4.433899091746778 -1.425769763778288 -1.4795759255305083 2.3396684866051695e-06 7.449917924753863e-07 0.8046624802055755 -8.630337220196447 -5.653613286279294 -35.14433145642671 4.963969357747353 78.40783368020821 -26.74604191013996 -1.8421962516319033e-06 -8.873719519456316e-07 -1.1034765745125397e-32 -7.951386703658792e-16 -1.5902773407317584e-15 13.309156989948596 6.6025472424204334 -73.4502484153082 28.062729661257098 -2.230861341741443e-06 6.191010071161349e-06 0.0 0.0 6.3611093629270335e-15
0.0001444914669264108 78.36434173583984 -0.0008294293656945229 -91.68370273137856 -44.63879590283167 -92.56825420133164 -0.7747904116691307 -13.177933857902033 -0.5416660292095868 0.9201999308273064 17.908173230620175 -4.588142114820284 -3.1805546814635176e-15 6.361109362927035e-15 1.7655625192200634e-31 -0.6351608233840715 -11.033726274180868 -10.00299898716893 -1.6187625569770878 13.563906134472461 2.7975348941872924 0.0 -7.951386703658792e-15 0.0 0.2560972458228381 4.4592254517875425 -1.1226139712822842 -1.3644956985078776 -1.0722672404437936e-06 -2.780631060965337e-06 -0.5231592275174074 -9.121522966260626 -5.721281308133281 -35.22268393204117 5.001182974610298 78.18798119854885 -26.67562021485821 1.77036508177629e-06 1.7637984495098894e-06 0.0 0.0 1.5902773407317584e-15 12.425185927311382 6.10132995660205 -73.71895916883301 28.14316519108226 1.3290196761364995e-06 3.145064281363485e-06 -1.5902773407317584e-15 4.4139062980501586e-32 -3.1805546814635168e-15
0.00010966691479552537 78.3644027709961 -0.000871418509632349 -91.28322566870044 -44.40385128321498 -92.55107251784281 -0.7045988980685244 -13.578244134306855 -0.050611892319642096 0.9773322044434428 18.36447352603049 -5.423578495666971 3.1805546814635164e-15 -1.5902773407317582e-15 4.4139062980501586e-32 -0.5785397692241308 -11.402899514718047 -9.76416269840377 -1.6451888976311497 13.474821113710954 3.258450742617596 0.0 -6.361109362927033e-15 0.0 0.22446814269230095 4.435998747507824 -1.1077662220673834 -1.5651202602976397 -9.412228712588452e-07 -5.036536065898064e-07 -1.3248807653726358 -9.987503009852022 -5.846426216574807 -36.39592629993064 5.541013262043713 77.8331936304152 -27.114159036106763 1.6535863646009593e-06 3.6222647861397545e-07 0.0 0.0 0.0 11.617529548360668 5.7877262884540075 -73.45271571989305 28.408825522122736 3.79811136373972e-07 3.3250807117363344e-07 4.770832022195275e-15 -1.3241718894150476e-31 -3.1805546814635168e-15
9.968371159629896e-05 78.36444091796875 -0.0008978937403298914 -90.7814529069944 -44.265324311972606 -92.43692547608457 -0.6852382677525309 -14.216459104368774 0.27508550685498023 1.0642256357850353 19.172466257548344 -5.591555532777362 3.1805546814635168e-15 8.827812596100317e-32 3.1805546814635168e-15 -0.566317359464004 -12.026679158714678 -9.50733792460989 -1.6556634078003982 13.649908801870954 3.369701610141 0.0 0.0 0.0 0.20652483154946003 4.403439156393858 -1.109911131544295 -1.8336911535459766 1.9338261059702585e-07 1.2479165837608942e-06 -1.4560176181708533 -10.588782322795728 -5.908417045393486 -38.50427353923188 6.148135064488333 77.67858905548793 -28.568992944099893 3.66960916097555e-07 -8.783356963049462e-07 1.2722218725854065e-14 -8.827812596100317e-32 -7.951386703658791e-16 10.065687884601434 5.4254463180662675 -73.33217402218594 29.17959366757731 -1.4211878024688976e-06 3.937632662392265e-06 1.590277340731758e-15 4.4139062980501586e-32 3.180554681463516e-15
0.00012139066529925913 78.36441040039062 -0.0008810120634734631 -90.58137284439107 -43.679413618481426 -92.3399192970028 -0.6927307316850199 -15.056347259970936 0.5516689675930688 1.1723610305062238 20.03309876074219 -5.686306789305274 3.1805546814635168e-15 1.5902773407317584e-15 -3.1805546814635168e-15 -0.5633670894017445 -12.552755565417767 -9.598360586010704 -1.8158994074659969 14.467026691348913 3.63688702451665 -3.1805546814635168e-15 0.0 0.0 0.20464188044915893 4.582624785064561 -1.4301741143749904 -1.8028010857383376 -1.7679183623214411e-06 -1.1937098147798517e-06 -0.550009044536447 -10.61119071258406 -5.4276929027576655 -38.38901434738517 6.140593453798154 77.50675476870191 -29.953823373464925 2.212484651029912e-06 1.1777568359341914e-06 -6.3611093629270335e-15 0.0 0.0 10.449453879203109 5.0642654836189775 -72.24146277240867 30.113091079149992 3.0303579840471284e-06 -1.816405810775934e-06 1.5902773407317584e-15 6.3611093629270335e-15 -8.827812596100317e-32
0.0001549746230011806 78.36443328857422 -0.0008788823615759611 -90.28791321980157 -43.035224110361085 -92.31521656718024 -0.712358081971245 -15.02584962751703 0.9946949734013645 1.3482045494980386 19.81394493247283 -6.080768204204279 0.0 0.0 0.0 -0.5610156650254597 -12.131348942146667 -9.3091168762335 -1.6672199092100288 14.039900030776602 3.326789849335116 0.0 -6.361109362927033e-15 0.0 0.21226963175293656 4.61040350107555 -1.3632016583514668 -1.7580642975295966 2.985577874313551e-06 -1.9619812904564586e-08 0.12615082712206827 -10.974406441110077 -5.457939318391809 -39.83102881870412 6.069779478082482 77.31146440115539 -30.846964676913224 1.761672263255541e-07 6.864065276163174e-08 0.0 0.0 0.0 9.443128149686556 4.904554898286798 -71.91340880848563 31.078374197766678 -1.1580367647689718e-06 2.010510067875309e-06 0.0 0.0 0.0
0.0001699111599009484 78.3644027709961 -0.0008917138911783695 -89.94733010837753 -42.46834132956086 -92.30553570529283 -0.6393629800082008 -14.998419370654435 1.6555700895401662 1.474447682246415 19.651849885900024 -6.379349888522056 -6.361109362927033e-15 1.7655625192200634e-31 -3.1805546814635164e-15 -0.5113015894085694 -12.300405428445234 -8.794962886475028 -1.6367434551087638 14.303281809859856 2.9302162492829997 -3.1805546814635176e-15 0.0 0.0 0.19927299865478706 4.8143310333364555 -1.5334286295466013 -1.7703468524927384 -4.891581589062902e-08 2.7566044141637956e-06 1.0822829261889864 -11.039109987883176 -4.715661655022601 -41.394511000245565 6.381031883758388 77.29738614589223 -32.93589174005535 2.8947889191504055e-06 1.3517977711331794e-06 0.0 0.0 0.0 9.974548822588208 4.552823524482432 -71.02722727910431 31.461210440943205 1.8289057737451296e-06 4.9184709082757324e-06 6.3611093629270335e-15 -3.1805546814635164e-15 6.3611093629270335e-15
